REM Ripping Tool: trurip

FILE "Travellers! Densetsu o Buttobase (1994)(Victor)(JP).img" BINARY
  TRACK 01 AUDIO
    INDEX 01 00:00:00
  TRACK 02 MODE1/2352
    INDEX 00 00:44:66
    INDEX 01 00:47:65
  TRACK 03 AUDIO
    INDEX 00 07:39:02
    INDEX 01 07:41:02
  TRACK 04 AUDIO
    INDEX 01 08:06:54
  TRACK 05 AUDIO
    INDEX 01 12:18:16
  TRACK 06 AUDIO
    INDEX 01 16:31:56
  TRACK 07 AUDIO
    INDEX 01 20:50:53
  TRACK 08 MODE1/2352
    INDEX 00 24:23:06
    INDEX 01 24:26:05

REM DISC HASHES
REM CRC32 : fb3aad13
REM MD5   : b834f8299946843ca117024dcd35291b
REM SHA1  : 990acafb4d2dee2dc8048d644ead143e6f07bce3

REM Gap Append Method: Prev [crc32]
REM Trk 01: 84c0ffc9
REM Trk 02: 7432d6bd
REM Trk 03: 832ac583
REM Trk 04: 8a8c73e2
REM Trk 05: b914064b
REM Trk 06: 4c5f3775
REM Trk 07: bafecc1e
REM Trk 08: 2d4975f6

REM Gap Append Method: Prev [md5]
REM Trk 01: beff8dbfa67d75e22049b6e4e87844c5
REM Trk 02: aca9d8a7bd1769d6b8bf94f0542aa4a8
REM Trk 03: 502304dee997faff3d890a72bca17915
REM Trk 04: ff154578173fb4009bb9465657f9ee00
REM Trk 05: 542b51d77325cfa4bcb4d9c92266ea49
REM Trk 06: 99b355e26895077d6b65fc1d964c7086
REM Trk 07: 7d3a3ccfe21fb7e6ffeba9d1a648f10c
REM Trk 08: deeddec574b12a664d83cb326ee5bc48

REM Gap Append Method: Prev [sha1]
REM Trk 01: 01877d44dbc4c8248ed64aa06b4e03377cec8d4a
REM Trk 02: e362fa8d3c1b0adfdf9f0d118231b96ec54dedc4
REM Trk 03: 199e3b2f9ed93c7d849ff26aaf458a2ecc322498
REM Trk 04: 3cd45a26613cb77aa5c65f8ea3e0398445a4877d
REM Trk 05: fe840be559c07976b341c4cf34069a1ceca089dc
REM Trk 06: 76595bbf54d3c2e67a78b115d1d43fc55395c517
REM Trk 07: 4bdfd748b549c69a166bbe75c027b858350991fc
REM Trk 08: 9436cef02f3a1847cdad92c728aa18cf74472605

REM Gap Append Method: None [crc32]
REM Trk 01: be128779
REM Trk 02: 5213b8f9
REM Trk 03: 832ac583
REM Trk 04: 8a8c73e2
REM Trk 05: b914064b
REM Trk 06: 4c5f3775
REM Trk 07: 039ebd84
REM Trk 08: 2d4975f6
REM Gap 02: eacd1466
REM Gap 03: 7abe247f
REM Gap 08: fc9b7607

REM Gap Append Method: None [md5]
REM Trk 01: 94b35e830f55eb6ec03222eb081b6763
REM Trk 02: ed84c3457dba49ac226a7a2006d990fe
REM Trk 03: 502304dee997faff3d890a72bca17915
REM Trk 04: ff154578173fb4009bb9465657f9ee00
REM Trk 05: 542b51d77325cfa4bcb4d9c92266ea49
REM Trk 06: 99b355e26895077d6b65fc1d964c7086
REM Trk 07: c2d899ae40b6ad2ae274561ad67b7db3
REM Trk 08: deeddec574b12a664d83cb326ee5bc48
REM Gap 02: 878bf0e0b9f1b8bc0330bfe39eb227c9
REM Gap 03: 9df204fbc98bb8965081cb30a89715fc
REM Gap 08: 5ba2f86f973fb9e764ee130d8665ea69

REM Gap Append Method: None [sha1]
REM Trk 01: 373442f6e448f60db2e0093b31e9c62da9bab999
REM Trk 02: f297a6b85d9e32113b9c19baf821ef5a0578e4d6
REM Trk 03: 199e3b2f9ed93c7d849ff26aaf458a2ecc322498
REM Trk 04: 3cd45a26613cb77aa5c65f8ea3e0398445a4877d
REM Trk 05: fe840be559c07976b341c4cf34069a1ceca089dc
REM Trk 06: 76595bbf54d3c2e67a78b115d1d43fc55395c517
REM Trk 07: d75f5dc24a9586c43f967c088c060e770eb52d96
REM Trk 08: 9436cef02f3a1847cdad92c728aa18cf74472605
REM Gap 02: fb2028173c340a0b16ab201d9314c7ae2a171ffe
REM Gap 03: cbe29e0bd725ef1194f8c47619dd42078e841de2
REM Gap 08: ec0b544535917803da0daa64931d6890b43d9f05

REM Gap Append Method: Next [crc32]
REM Trk 01: be128779
REM Trk 02: 2ccebfed
REM Trk 03: 166129ac
REM Trk 04: 8a8c73e2
REM Trk 05: b914064b
REM Trk 06: 4c5f3775
REM Trk 07: 039ebd84
REM Trk 08: b23e107e

REM Gap Append Method: Next [md5]
REM Trk 01: 94b35e830f55eb6ec03222eb081b6763
REM Trk 02: f95e86c1ba6a681c6fef2290c17434cb
REM Trk 03: 3d111f2feaac3c80a49d06a710aa83fd
REM Trk 04: ff154578173fb4009bb9465657f9ee00
REM Trk 05: 542b51d77325cfa4bcb4d9c92266ea49
REM Trk 06: 99b355e26895077d6b65fc1d964c7086
REM Trk 07: c2d899ae40b6ad2ae274561ad67b7db3
REM Trk 08: bc4d837b3c26c0f1149110f831777785

REM Gap Append Method: Next [sha1]
REM Trk 01: 373442f6e448f60db2e0093b31e9c62da9bab999
REM Trk 02: a85a0aa38f1896dfcc4af602ef059d50c34d4877
REM Trk 03: df9522f3612c87eee650816e9997dbebf08d8789
REM Trk 04: 3cd45a26613cb77aa5c65f8ea3e0398445a4877d
REM Trk 05: fe840be559c07976b341c4cf34069a1ceca089dc
REM Trk 06: 76595bbf54d3c2e67a78b115d1d43fc55395c517
REM Trk 07: d75f5dc24a9586c43f967c088c060e770eb52d96
REM Trk 08: b62933830980f60b8fc47520dff95b9c30629b47

